G04 MADE WITH FRITZING*
G04 WWW.FRITZING.ORG*
G04 DOUBLE SIDED*
G04 HOLES PLATED*
G04 CONTOUR ON CENTER OF CONTOUR VECTOR*
%ASAXBY*%
%FSLAX23Y23*%
%MOIN*%
%OFA0B0*%
%SFA1.0B1.0*%
%ADD10C,0.078000*%
%ADD11C,0.130552*%
%ADD12C,0.138426*%
%ADD13C,0.070000*%
%ADD14C,0.138425*%
%ADD15C,0.076000*%
%ADD16R,0.078000X0.078000*%
%ADD17R,0.061024X0.023622*%
%ADD18C,0.024000*%
%LNCOPPER1*%
G90*
G70*
G54D10*
X1112Y1629D03*
X1212Y1629D03*
X1312Y1629D03*
G54D11*
X1327Y228D03*
G54D12*
X117Y811D03*
G54D11*
X1327Y745D03*
G54D13*
X617Y861D03*
X717Y861D03*
X817Y861D03*
X917Y861D03*
X1017Y861D03*
X1117Y861D03*
X417Y861D03*
X517Y861D03*
G54D12*
X117Y161D03*
G54D14*
X916Y1658D03*
X916Y1058D03*
G54D15*
X366Y1658D03*
X466Y1658D03*
X566Y1658D03*
X666Y1658D03*
G54D13*
X266Y1058D03*
X366Y1058D03*
X466Y1058D03*
X566Y1058D03*
X666Y1058D03*
X766Y1058D03*
G54D14*
X116Y1658D03*
X116Y1058D03*
G54D10*
X1500Y1594D03*
X1500Y1494D03*
X1500Y1394D03*
X1500Y1294D03*
X1500Y1194D03*
X1500Y1094D03*
X1500Y994D03*
X1500Y894D03*
X1500Y794D03*
X1500Y694D03*
X1500Y594D03*
X1500Y494D03*
X1500Y394D03*
X1500Y294D03*
X1500Y194D03*
X2100Y195D03*
X2100Y295D03*
X2100Y395D03*
X2100Y495D03*
X2100Y595D03*
X2100Y695D03*
X2100Y795D03*
X2100Y895D03*
X2100Y995D03*
X2100Y1095D03*
X2100Y1195D03*
X2100Y1295D03*
X2100Y1395D03*
X2100Y1495D03*
X2100Y1595D03*
G54D16*
X1112Y1629D03*
G54D17*
X817Y1299D03*
X817Y1339D03*
X817Y1378D03*
X817Y1417D03*
X215Y1417D03*
X215Y1378D03*
X215Y1339D03*
X215Y1299D03*
G54D18*
X1429Y349D02*
X1430Y192D01*
D02*
X761Y1156D02*
X680Y1072D01*
D02*
X1272Y1157D02*
X761Y1156D01*
D02*
X512Y881D02*
X471Y1039D01*
D02*
X1128Y844D02*
X1429Y349D01*
D02*
X378Y1074D02*
X702Y1492D01*
D02*
X1825Y212D02*
X1687Y113D01*
D02*
X1784Y290D02*
X1825Y212D01*
D02*
X1687Y113D02*
X1253Y114D01*
D02*
X1253Y114D02*
X1023Y842D01*
D02*
X1519Y294D02*
X1784Y290D01*
D02*
X1488Y909D02*
X1272Y1157D01*
D02*
X1430Y192D02*
X1481Y194D01*
D02*
X702Y1492D02*
X1481Y1494D01*
G04 End of Copper1*
M02*