; NON-PLATED HOLES START AT T1
; THROUGH (PLATED) HOLES START AT T100
M48
INCH
T100C0.039370
T101C0.038000
T102C0.098426
T103C0.090551
T104C0.040000
T105C0.098425
%
T100
X005171Y008614
X007659Y010583
X005659Y010583
X006659Y016583
X003659Y016583
X004171Y008614
X004659Y016583
X005659Y016583
X002659Y010583
X003659Y010583
X006659Y010583
X004659Y010583
T101
X015002Y012943
X020997Y009945
X015002Y006943
X015002Y008943
X020997Y012945
X015002Y003942
X015002Y001942
X020997Y006945
X015002Y009943
X020997Y002945
X020997Y008945
X020997Y005945
X015002Y011943
X020997Y014945
X020997Y010945
X015002Y013943
X020997Y004945
X013123Y016291
X011123Y016291
X020997Y015945
X020997Y007945
X020997Y011945
X015002Y005943
X020997Y013945
X012123Y016291
X015002Y010943
X015002Y014943
X015002Y002942
X020997Y003945
X015002Y004943
X020997Y001945
X015002Y007943
X015002Y015943
T102
X001171Y001614
X001171Y008114
T103
X013271Y002278
X013271Y007451
T104
X006171Y008614
X008171Y008614
X011171Y008614
X010171Y008614
X007171Y008614
X009171Y008614
T105
X001159Y016583
X009159Y010583
X001159Y010583
X009159Y016583
T00
M30
